<svg xmlns="http://www.w3.org/2000/svg" viewBox="0 0 16 16">
  <path fill="#161614" d="M8 .2a7.8 7.8 0 0 0-2.47 15.2c.39.07.53-.17.53-.38v-1.33c-2.17.47-2.63-1.05-2.63-1.05-.36-.9-.88-1.14-.88-1.14-.72-.49.06-.48.06-.48.8.06 1.22.82 1.22.82.71 1.22 1.86.87 2.31.67.07-.52.28-.87.5-1.07-1.73-.2-3.55-.87-3.55-3.88 0-.86.31-1.56.82-2.12-.08-.2-.36-1.01.08-2.1 0 0 .67-.22 2.2.81a7.6 7.6 0 0 1 4 0c1.53-1.03 2.2-.81 2.2-.81.44 1.09.16 1.9.08 2.1.51.56.82 1.26.82 2.12 0 3.02-1.82 3.67-3.55 3.87.29.25.54.74.54 1.5v2.22c0 .21.14.46.53.38A7.8 7.8 0 0 0 8 .2z"/>
</svg>